<?xml version="1.0" encoding="utf-8"?>
<!-- Generator: Adobe Illustrator 21.0.0, SVG Export Plug-In . SVG Version: 6.00 Build 0)  -->
<svg version="1.1" id="Layer_1" xmlns="http://www.w3.org/2000/svg" xmlns:xlink="http://www.w3.org/1999/xlink" x="0px" y="0px"
	 viewBox="0 0 500 500" style="enable-background:new 0 0 500 500;" xml:space="preserve">
<style type="text/css">
	.st0{enable-background:new    ;}
	.st1{fill:url(#SVGID_1_);}
</style>
<g class="st0">
	<g>
		<linearGradient id="SVGID_1_" gradientUnits="userSpaceOnUse" x1="158.5327" y1="246.0483" x2="335.4922" y2="246.0483">
			<stop  offset="0" style="stop-color:#00C6FB"/>
			<stop  offset="1" style="stop-color:#005BEA"/>
		</linearGradient>
		<path class="st1" d="M310.2,185.6c-2.1-2.3-5.2-4.9-9.3-7.5c-4.1-2.7-8.8-5.2-14.2-7.5c-5.4-2.3-11.4-4.3-17.9-5.8
			c-6.5-1.5-13.2-2.2-20-2.2c-15.1,0-26.3,2.8-33.4,8.3c-7.1,5.5-10.7,13.2-10.7,23c0,5.5,1.1,10.1,3.4,13.6
			c2.2,3.5,5.7,6.6,10.4,9.3c4.7,2.7,10.6,5,17.6,7c7,2,15.2,4.2,24.6,6.6c11.5,2.8,21.9,5.9,31.2,9.3c9.3,3.4,17.1,7.6,23.5,12.5
			c6.4,4.9,11.4,10.9,14.9,18.1c3.5,7.2,5.3,15.8,5.3,26.1c0,11.5-2.2,21.4-6.6,29.8c-4.4,8.3-10.4,15.1-17.9,20.3
			c-7.6,5.2-16.4,9.1-26.4,11.5c-10,2.5-20.8,3.7-32.3,3.7c-17.3,0-34-2.6-50.1-7.8c-16.1-5.2-30.7-12.9-43.7-22.9l16.3-30.7
			c2.8,2.8,6.8,5.9,12,9.3c5.2,3.4,11.3,6.6,18.2,9.4c6.9,2.9,14.5,5.3,22.6,7.4c8.1,2,16.5,3,25.3,3c14.1,0,25-2.5,32.6-7.4
			c7.7-4.9,11.5-12.2,11.5-21.8c0-5.8-1.4-10.6-4.3-14.4c-2.9-3.8-7-7.2-12.3-10.1c-5.3-2.9-11.8-5.5-19.5-7.8
			c-7.7-2.3-16.4-4.8-26.2-7.4c-11.3-3-21.2-6.1-29.6-9.4c-8.4-3.3-15.4-7.3-21-12c-5.5-4.7-9.8-10.2-12.6-16.5
			c-2.9-6.3-4.3-13.9-4.3-22.9c0-11.1,2.1-21,6.4-29.6c4.3-8.6,10.1-15.9,17.4-21.8c7.4-5.9,16.1-10.3,26.1-13.3
			c10-3,20.9-4.5,32.6-4.5c15.4,0,29.5,2.5,42.6,7.4c13,4.9,24.4,11,34.2,18.2L310.2,185.6z"/>
	</g>
</g>
</svg>
